<mxfile host="app.diagrams.net" modified="2022-03-02T02:02:39.809Z" agent="5.0 (Windows NT 10.0; Win64; x64) AppleWebKit/537.36 (KHTML, like Gecko) Chrome/98.0.4758.102 Safari/537.36" etag="DvNj_pGPAH6UAaH3TVE2" version="16.6.4" type="github">
  <diagram id="CcLu8pJx7sYRD5yKEzLu" name="Page-1">
    <mxGraphModel dx="6114" dy="1641" grid="1" gridSize="10" guides="1" tooltips="1" connect="1" arrows="1" fold="1" page="1" pageScale="1" pageWidth="850" pageHeight="1100" math="0" shadow="0">
      <root>
        <mxCell id="0" />
        <mxCell id="1" parent="0" />
        <mxCell id="hRmUiVgqd-fP8M-4zKgl-9" value="" style="edgeStyle=orthogonalEdgeStyle;rounded=0;orthogonalLoop=1;jettySize=auto;html=1;startArrow=classic;startFill=1;" parent="1" source="hRmUiVgqd-fP8M-4zKgl-2" target="hRmUiVgqd-fP8M-4zKgl-7" edge="1">
          <mxGeometry relative="1" as="geometry" />
        </mxCell>
        <mxCell id="hRmUiVgqd-fP8M-4zKgl-2" value="&lt;font color=&quot;#0000ff&quot;&gt;&lt;b&gt;G&lt;/b&gt;&lt;/font&gt;&lt;br&gt;O Sistema satisfaz os objetivos dos stakeholders para recriação do Jogo do Labirinto" style="rounded=0;whiteSpace=wrap;html=1;" parent="1" vertex="1">
          <mxGeometry x="-97" y="-980" width="205" height="110" as="geometry" />
        </mxCell>
        <mxCell id="SyE-WnLj72KJWZx9Bk1h-50" style="edgeStyle=orthogonalEdgeStyle;rounded=0;orthogonalLoop=1;jettySize=auto;html=1;entryX=0.5;entryY=0;entryDx=0;entryDy=0;exitX=0;exitY=0.5;exitDx=0;exitDy=0;startArrow=none;startFill=1;" parent="1" source="9Wqa6SIRsuj5Y4Wulnrp-28" target="SyE-WnLj72KJWZx9Bk1h-1" edge="1">
          <mxGeometry relative="1" as="geometry" />
        </mxCell>
        <mxCell id="hRmUiVgqd-fP8M-4zKgl-3" value="&lt;b&gt;&lt;font color=&quot;#0000ff&quot;&gt;G1&lt;/font&gt;&lt;/b&gt;&lt;br&gt;O Sistema satisfaz as necessidades funcionais" style="rounded=0;whiteSpace=wrap;html=1;" parent="1" vertex="1">
          <mxGeometry x="-540" y="-770" width="160" height="90" as="geometry" />
        </mxCell>
        <mxCell id="hRmUiVgqd-fP8M-4zKgl-5" value="&lt;font style=&quot;font-size: 12px&quot;&gt;&lt;b&gt;&lt;font color=&quot;#0000ff&quot; style=&quot;font-size: 12px&quot;&gt;G2&lt;/font&gt;&lt;/b&gt;&lt;br&gt;O Sistema satisfaz as necessidades não-funcionais (atributos de qualidade)&lt;/font&gt;" style="rounded=0;whiteSpace=wrap;html=1;" parent="1" vertex="1">
          <mxGeometry x="620" y="-1000" width="160" height="90" as="geometry" />
        </mxCell>
        <mxCell id="hRmUiVgqd-fP8M-4zKgl-10" style="edgeStyle=orthogonalEdgeStyle;rounded=0;orthogonalLoop=1;jettySize=auto;html=1;entryX=0.5;entryY=0;entryDx=0;entryDy=0;startArrow=classic;startFill=1;" parent="1" source="hRmUiVgqd-fP8M-4zKgl-7" target="hRmUiVgqd-fP8M-4zKgl-3" edge="1">
          <mxGeometry relative="1" as="geometry" />
        </mxCell>
        <mxCell id="hRmUiVgqd-fP8M-4zKgl-11" style="edgeStyle=orthogonalEdgeStyle;rounded=0;orthogonalLoop=1;jettySize=auto;html=1;entryX=0.5;entryY=0;entryDx=0;entryDy=0;startArrow=classic;startFill=1;" parent="1" source="hRmUiVgqd-fP8M-4zKgl-7" target="hRmUiVgqd-fP8M-4zKgl-5" edge="1">
          <mxGeometry relative="1" as="geometry" />
        </mxCell>
        <mxCell id="hRmUiVgqd-fP8M-4zKgl-7" value="" style="ellipse;whiteSpace=wrap;html=1;aspect=fixed;fillColor=#f5f5f5;fontColor=#333333;strokeColor=#666666;" parent="1" vertex="1">
          <mxGeometry x="-9.5" y="-840" width="30" height="30" as="geometry" />
        </mxCell>
        <mxCell id="hRmUiVgqd-fP8M-4zKgl-23" style="edgeStyle=orthogonalEdgeStyle;rounded=0;orthogonalLoop=1;jettySize=auto;html=1;fontColor=#0000FF;" parent="1" source="hRmUiVgqd-fP8M-4zKgl-12" target="hRmUiVgqd-fP8M-4zKgl-22" edge="1">
          <mxGeometry relative="1" as="geometry" />
        </mxCell>
        <mxCell id="hRmUiVgqd-fP8M-4zKgl-28" style="edgeStyle=orthogonalEdgeStyle;rounded=0;orthogonalLoop=1;jettySize=auto;html=1;fontColor=#000000;" parent="1" source="hRmUiVgqd-fP8M-4zKgl-12" target="hRmUiVgqd-fP8M-4zKgl-27" edge="1">
          <mxGeometry relative="1" as="geometry" />
        </mxCell>
        <mxCell id="hRmUiVgqd-fP8M-4zKgl-12" value="O Sistema permite ao usuário o acesso a plataforma do jogo." style="rounded=0;whiteSpace=wrap;html=1;" parent="1" vertex="1">
          <mxGeometry x="-215" y="1160" width="120" height="60" as="geometry" />
        </mxCell>
        <mxCell id="9Wqa6SIRsuj5Y4Wulnrp-12" style="edgeStyle=orthogonalEdgeStyle;rounded=0;orthogonalLoop=1;jettySize=auto;html=1;entryX=0.5;entryY=0;entryDx=0;entryDy=0;startArrow=classic;startFill=1;" edge="1" parent="1" source="hRmUiVgqd-fP8M-4zKgl-14" target="9Wqa6SIRsuj5Y4Wulnrp-8">
          <mxGeometry relative="1" as="geometry" />
        </mxCell>
        <mxCell id="hRmUiVgqd-fP8M-4zKgl-14" value="&lt;font style=&quot;font-size: 10px&quot;&gt;&lt;b&gt;&lt;font color=&quot;#0000ff&quot; style=&quot;font-size: 10px&quot;&gt;G2.1&lt;/font&gt;&lt;/b&gt;&lt;br&gt;O Sistema deve ter Eficiência de Desempenho&lt;/font&gt;" style="rounded=0;whiteSpace=wrap;html=1;" parent="1" vertex="1">
          <mxGeometry x="320" y="-800" width="120" height="60" as="geometry" />
        </mxCell>
        <mxCell id="9Wqa6SIRsuj5Y4Wulnrp-14" style="edgeStyle=orthogonalEdgeStyle;rounded=0;orthogonalLoop=1;jettySize=auto;html=1;entryX=0.5;entryY=0;entryDx=0;entryDy=0;startArrow=classic;startFill=1;" edge="1" parent="1" source="hRmUiVgqd-fP8M-4zKgl-15" target="9Wqa6SIRsuj5Y4Wulnrp-10">
          <mxGeometry relative="1" as="geometry" />
        </mxCell>
        <mxCell id="hRmUiVgqd-fP8M-4zKgl-15" value="&lt;font style=&quot;font-size: 10px&quot;&gt;&lt;b&gt;&lt;font color=&quot;#0000ff&quot;&gt;G2.3&lt;/font&gt;&lt;/b&gt;&lt;br&gt;O Sistema deve ter Portabilidade&lt;/font&gt;" style="rounded=0;whiteSpace=wrap;html=1;" parent="1" vertex="1">
          <mxGeometry x="980" y="-800" width="120" height="60" as="geometry" />
        </mxCell>
        <mxCell id="hRmUiVgqd-fP8M-4zKgl-34" style="edgeStyle=orthogonalEdgeStyle;rounded=0;orthogonalLoop=1;jettySize=auto;html=1;fontColor=#000000;" parent="1" source="hRmUiVgqd-fP8M-4zKgl-19" target="hRmUiVgqd-fP8M-4zKgl-30" edge="1">
          <mxGeometry relative="1" as="geometry" />
        </mxCell>
        <mxCell id="gk21CeRTLY4jMx4OXJq9-3" style="edgeStyle=orthogonalEdgeStyle;rounded=0;orthogonalLoop=1;jettySize=auto;html=1;entryX=0.5;entryY=0;entryDx=0;entryDy=0;" parent="1" source="hRmUiVgqd-fP8M-4zKgl-19" target="gk21CeRTLY4jMx4OXJq9-2" edge="1">
          <mxGeometry relative="1" as="geometry" />
        </mxCell>
        <mxCell id="hRmUiVgqd-fP8M-4zKgl-19" value="Comandos de ações&amp;nbsp;" style="rounded=0;whiteSpace=wrap;html=1;" parent="1" vertex="1">
          <mxGeometry x="-495" y="1360" width="120" height="60" as="geometry" />
        </mxCell>
        <mxCell id="hRmUiVgqd-fP8M-4zKgl-20" value="Sistema de Ranking ao final do jogo" style="rounded=0;whiteSpace=wrap;html=1;" parent="1" vertex="1">
          <mxGeometry x="5" y="1370" width="120" height="60" as="geometry" />
        </mxCell>
        <mxCell id="9Wqa6SIRsuj5Y4Wulnrp-13" style="edgeStyle=orthogonalEdgeStyle;rounded=0;orthogonalLoop=1;jettySize=auto;html=1;entryX=0.5;entryY=0;entryDx=0;entryDy=0;startArrow=classic;startFill=1;" edge="1" parent="1" source="hRmUiVgqd-fP8M-4zKgl-21" target="9Wqa6SIRsuj5Y4Wulnrp-9">
          <mxGeometry relative="1" as="geometry" />
        </mxCell>
        <mxCell id="hRmUiVgqd-fP8M-4zKgl-21" value="&lt;b style=&quot;font-size: 10px&quot;&gt;&lt;font color=&quot;#0000ff&quot;&gt;G2.2&lt;/font&gt;&lt;/b&gt;&lt;br style=&quot;font-size: 10px&quot;&gt;&lt;span style=&quot;font-size: 10px&quot;&gt;O Sistema deve ser Livre de Riscos&lt;/span&gt;" style="rounded=0;whiteSpace=wrap;html=1;" parent="1" vertex="1">
          <mxGeometry x="640" y="-800" width="120" height="60" as="geometry" />
        </mxCell>
        <mxCell id="hRmUiVgqd-fP8M-4zKgl-24" style="edgeStyle=orthogonalEdgeStyle;rounded=0;orthogonalLoop=1;jettySize=auto;html=1;fontColor=#0000FF;" parent="1" source="hRmUiVgqd-fP8M-4zKgl-22" target="hRmUiVgqd-fP8M-4zKgl-19" edge="1">
          <mxGeometry relative="1" as="geometry" />
        </mxCell>
        <mxCell id="hRmUiVgqd-fP8M-4zKgl-22" value="ações no jogo" style="rounded=0;whiteSpace=wrap;html=1;" parent="1" vertex="1">
          <mxGeometry x="-375" y="1250" width="120" height="60" as="geometry" />
        </mxCell>
        <mxCell id="hRmUiVgqd-fP8M-4zKgl-40" style="edgeStyle=orthogonalEdgeStyle;rounded=0;orthogonalLoop=1;jettySize=auto;html=1;fontColor=#000000;" parent="1" source="hRmUiVgqd-fP8M-4zKgl-26" target="hRmUiVgqd-fP8M-4zKgl-39" edge="1">
          <mxGeometry relative="1" as="geometry" />
        </mxCell>
        <mxCell id="hRmUiVgqd-fP8M-4zKgl-26" value="&lt;font color=&quot;#000000&quot;&gt;interface do jogo&lt;/font&gt;" style="rounded=0;whiteSpace=wrap;html=1;fontColor=#0000FF;" parent="1" vertex="1">
          <mxGeometry x="-215" y="1250" width="120" height="60" as="geometry" />
        </mxCell>
        <mxCell id="hRmUiVgqd-fP8M-4zKgl-29" style="edgeStyle=orthogonalEdgeStyle;rounded=0;orthogonalLoop=1;jettySize=auto;html=1;fontColor=#000000;" parent="1" source="hRmUiVgqd-fP8M-4zKgl-27" target="hRmUiVgqd-fP8M-4zKgl-20" edge="1">
          <mxGeometry relative="1" as="geometry" />
        </mxCell>
        <mxCell id="hRmUiVgqd-fP8M-4zKgl-27" value="&lt;font color=&quot;#000000&quot;&gt;armazenamento das informações do jogo&lt;/font&gt;" style="rounded=0;whiteSpace=wrap;html=1;fontColor=#0000FF;" parent="1" vertex="1">
          <mxGeometry x="-55" y="1250" width="120" height="60" as="geometry" />
        </mxCell>
        <mxCell id="hRmUiVgqd-fP8M-4zKgl-37" style="edgeStyle=orthogonalEdgeStyle;rounded=0;orthogonalLoop=1;jettySize=auto;html=1;fontColor=#000000;" parent="1" source="hRmUiVgqd-fP8M-4zKgl-30" target="hRmUiVgqd-fP8M-4zKgl-36" edge="1">
          <mxGeometry relative="1" as="geometry" />
        </mxCell>
        <mxCell id="hRmUiVgqd-fP8M-4zKgl-30" value="&lt;font color=&quot;#000000&quot;&gt;Criação dos comandos de ação&lt;/font&gt;" style="shape=parallelogram;perimeter=parallelogramPerimeter;whiteSpace=wrap;html=1;fixedSize=1;fontColor=#0000FF;" parent="1" vertex="1">
          <mxGeometry x="-745" y="1470" width="170" height="60" as="geometry" />
        </mxCell>
        <mxCell id="hRmUiVgqd-fP8M-4zKgl-31" value="" style="shape=parallelogram;perimeter=parallelogramPerimeter;whiteSpace=wrap;html=1;fixedSize=1;fontColor=#0000FF;" parent="1" vertex="1">
          <mxGeometry x="-975" y="1660" width="170" height="60" as="geometry" />
        </mxCell>
        <mxCell id="hRmUiVgqd-fP8M-4zKgl-35" value="Usuário" style="shape=hexagon;perimeter=hexagonPerimeter2;whiteSpace=wrap;html=1;fixedSize=1;fontColor=#000000;" parent="1" vertex="1">
          <mxGeometry x="-970" y="1560" width="120" height="80" as="geometry" />
        </mxCell>
        <mxCell id="hRmUiVgqd-fP8M-4zKgl-36" value="API" style="shape=hexagon;perimeter=hexagonPerimeter2;whiteSpace=wrap;html=1;fixedSize=1;fontColor=#000000;" parent="1" vertex="1">
          <mxGeometry x="-720" y="1580" width="120" height="80" as="geometry" />
        </mxCell>
        <mxCell id="hRmUiVgqd-fP8M-4zKgl-39" value="Mudança de status atual da tela" style="rounded=0;whiteSpace=wrap;html=1;" parent="1" vertex="1">
          <mxGeometry x="-215" y="1370" width="120" height="60" as="geometry" />
        </mxCell>
        <mxCell id="gk21CeRTLY4jMx4OXJq9-10" style="edgeStyle=orthogonalEdgeStyle;rounded=0;orthogonalLoop=1;jettySize=auto;html=1;entryX=0.5;entryY=0;entryDx=0;entryDy=0;" parent="1" source="gk21CeRTLY4jMx4OXJq9-2" edge="1">
          <mxGeometry relative="1" as="geometry">
            <mxPoint x="-415" y="1570" as="targetPoint" />
          </mxGeometry>
        </mxCell>
        <mxCell id="gk21CeRTLY4jMx4OXJq9-11" style="edgeStyle=orthogonalEdgeStyle;rounded=0;orthogonalLoop=1;jettySize=auto;html=1;exitX=0.5;exitY=1;exitDx=0;exitDy=0;entryX=0.5;entryY=0;entryDx=0;entryDy=0;" parent="1" source="gk21CeRTLY4jMx4OXJq9-2" target="gk21CeRTLY4jMx4OXJq9-5" edge="1">
          <mxGeometry relative="1" as="geometry" />
        </mxCell>
        <mxCell id="gk21CeRTLY4jMx4OXJq9-2" value="Uso dos comandos de ação" style="rounded=0;whiteSpace=wrap;html=1;" parent="1" vertex="1">
          <mxGeometry x="-415" y="1480" width="120" height="60" as="geometry" />
        </mxCell>
        <mxCell id="gk21CeRTLY4jMx4OXJq9-4" value="Mover-se" style="rounded=0;whiteSpace=wrap;html=1;" parent="1" vertex="1">
          <mxGeometry x="-450" y="1200" width="120" height="60" as="geometry" />
        </mxCell>
        <mxCell id="gk21CeRTLY4jMx4OXJq9-5" value="Relizar ação" style="rounded=0;whiteSpace=wrap;html=1;" parent="1" vertex="1">
          <mxGeometry x="-345" y="1570" width="120" height="60" as="geometry" />
        </mxCell>
        <mxCell id="gk21CeRTLY4jMx4OXJq9-6" value="Usar poção" style="rounded=0;whiteSpace=wrap;html=1;" parent="1" vertex="1">
          <mxGeometry x="-560" y="1300" width="120" height="60" as="geometry" />
        </mxCell>
        <mxCell id="gk21CeRTLY4jMx4OXJq9-7" value="Coletar item" style="rounded=0;whiteSpace=wrap;html=1;" parent="1" vertex="1">
          <mxGeometry x="-435" y="1300" width="120" height="60" as="geometry" />
        </mxCell>
        <mxCell id="gk21CeRTLY4jMx4OXJq9-8" value="Largar Item" style="rounded=0;whiteSpace=wrap;html=1;" parent="1" vertex="1">
          <mxGeometry x="-335" y="1670" width="120" height="60" as="geometry" />
        </mxCell>
        <mxCell id="gk21CeRTLY4jMx4OXJq9-9" value="Arremessar Item" style="rounded=0;whiteSpace=wrap;html=1;" parent="1" vertex="1">
          <mxGeometry x="-205" y="1670" width="120" height="60" as="geometry" />
        </mxCell>
        <mxCell id="SyE-WnLj72KJWZx9Bk1h-7" style="edgeStyle=orthogonalEdgeStyle;rounded=0;orthogonalLoop=1;jettySize=auto;html=1;entryX=0.5;entryY=0;entryDx=0;entryDy=0;exitX=0;exitY=0.5;exitDx=0;exitDy=0;startArrow=classic;startFill=1;" parent="1" source="9Wqa6SIRsuj5Y4Wulnrp-30" target="SyE-WnLj72KJWZx9Bk1h-2" edge="1">
          <mxGeometry relative="1" as="geometry" />
        </mxCell>
        <mxCell id="SyE-WnLj72KJWZx9Bk1h-71" style="edgeStyle=orthogonalEdgeStyle;rounded=0;orthogonalLoop=1;jettySize=auto;html=1;entryX=0.5;entryY=0;entryDx=0;entryDy=0;exitX=1;exitY=0.5;exitDx=0;exitDy=0;startArrow=classic;startFill=1;" parent="1" source="9Wqa6SIRsuj5Y4Wulnrp-30" edge="1" target="SyE-WnLj72KJWZx9Bk1h-72">
          <mxGeometry relative="1" as="geometry">
            <mxPoint x="-1144.9999999999995" y="-405" as="targetPoint" />
          </mxGeometry>
        </mxCell>
        <mxCell id="SyE-WnLj72KJWZx9Bk1h-1" value="&lt;font style=&quot;font-size: 12px&quot;&gt;&lt;b&gt;&lt;font color=&quot;#0000ff&quot; style=&quot;font-size: 12px&quot;&gt;G1.1&lt;/font&gt;&lt;/b&gt;&lt;span&gt;&lt;font style=&quot;font-size: 12px&quot;&gt;&lt;br&gt;O sistema permite o jogador explorar o jogo do labirinto&lt;/font&gt;&lt;/span&gt;&lt;/font&gt;" style="rounded=0;whiteSpace=wrap;html=1;" parent="1" vertex="1">
          <mxGeometry x="-1932.5" y="-440" width="180" height="50" as="geometry" />
        </mxCell>
        <mxCell id="SyE-WnLj72KJWZx9Bk1h-2" value="&lt;span&gt;&lt;font style=&quot;font-size: 12px&quot;&gt;O sistema permite o jogador interagir com as portas&lt;/font&gt;&lt;/span&gt;" style="rounded=0;whiteSpace=wrap;html=1;" parent="1" vertex="1">
          <mxGeometry x="-2480" y="-210" width="120" height="50" as="geometry" />
        </mxCell>
        <mxCell id="SyE-WnLj72KJWZx9Bk1h-29" style="edgeStyle=orthogonalEdgeStyle;rounded=0;orthogonalLoop=1;jettySize=auto;html=1;entryX=0.5;entryY=0;entryDx=0;entryDy=0;" parent="1" source="SyE-WnLj72KJWZx9Bk1h-4" target="SyE-WnLj72KJWZx9Bk1h-10" edge="1">
          <mxGeometry relative="1" as="geometry" />
        </mxCell>
        <mxCell id="9Wqa6SIRsuj5Y4Wulnrp-47" style="edgeStyle=orthogonalEdgeStyle;rounded=0;orthogonalLoop=1;jettySize=auto;html=1;fontSize=12;startArrow=classic;startFill=1;exitX=0.5;exitY=1;exitDx=0;exitDy=0;" edge="1" parent="1" source="SyE-WnLj72KJWZx9Bk1h-4" target="9Wqa6SIRsuj5Y4Wulnrp-46">
          <mxGeometry relative="1" as="geometry" />
        </mxCell>
        <mxCell id="SyE-WnLj72KJWZx9Bk1h-4" value="&lt;span&gt;O sistema permite o jogador selecionar uma porta destrancada para se mover&lt;/span&gt;" style="rounded=0;whiteSpace=wrap;html=1;" parent="1" vertex="1">
          <mxGeometry x="-2950" y="-50.06" width="190" height="60" as="geometry" />
        </mxCell>
        <mxCell id="SyE-WnLj72KJWZx9Bk1h-52" style="edgeStyle=orthogonalEdgeStyle;rounded=0;orthogonalLoop=1;jettySize=auto;html=1;entryX=0.5;entryY=0;entryDx=0;entryDy=0;startArrow=classic;startFill=1;" parent="1" source="SyE-WnLj72KJWZx9Bk1h-5" target="SyE-WnLj72KJWZx9Bk1h-51" edge="1">
          <mxGeometry relative="1" as="geometry" />
        </mxCell>
        <mxCell id="SyE-WnLj72KJWZx9Bk1h-5" value="&lt;span&gt;&lt;font style=&quot;font-size: 12px&quot;&gt;O sistema permite o jogador destrancar uma porta trancada com sua respectiva&lt;/font&gt;&lt;/span&gt;" style="rounded=0;whiteSpace=wrap;html=1;" parent="1" vertex="1">
          <mxGeometry x="-2507.5" y="-50" width="170" height="50" as="geometry" />
        </mxCell>
        <mxCell id="SyE-WnLj72KJWZx9Bk1h-6" value="&lt;span&gt;O sistema permite o jogador trancar uma porta com uma poção&lt;/span&gt;" style="rounded=0;whiteSpace=wrap;html=1;" parent="1" vertex="1">
          <mxGeometry x="-2183.75" y="89.94" width="130" height="50" as="geometry" />
        </mxCell>
        <mxCell id="SyE-WnLj72KJWZx9Bk1h-31" style="edgeStyle=orthogonalEdgeStyle;rounded=0;orthogonalLoop=1;jettySize=auto;html=1;entryX=0.5;entryY=0;entryDx=0;entryDy=0;" parent="1" source="SyE-WnLj72KJWZx9Bk1h-10" target="SyE-WnLj72KJWZx9Bk1h-30" edge="1">
          <mxGeometry relative="1" as="geometry" />
        </mxCell>
        <mxCell id="SyE-WnLj72KJWZx9Bk1h-10" value="&lt;span&gt;O jogador pode escolher entre três portas&lt;/span&gt;" style="rounded=0;whiteSpace=wrap;html=1;" parent="1" vertex="1">
          <mxGeometry x="-2792.5" y="89.94" width="120" height="50" as="geometry" />
        </mxCell>
        <mxCell id="SyE-WnLj72KJWZx9Bk1h-30" value="" style="ellipse;whiteSpace=wrap;html=1;aspect=fixed;fillColor=#f5f5f5;fontColor=#333333;strokeColor=#666666;" parent="1" vertex="1">
          <mxGeometry x="-2747.5" y="159.94" width="30" height="30" as="geometry" />
        </mxCell>
        <mxCell id="SyE-WnLj72KJWZx9Bk1h-53" style="edgeStyle=orthogonalEdgeStyle;rounded=0;orthogonalLoop=1;jettySize=auto;html=1;startArrow=classic;startFill=1;" parent="1" source="SyE-WnLj72KJWZx9Bk1h-51" target="9Wqa6SIRsuj5Y4Wulnrp-33" edge="1">
          <mxGeometry relative="1" as="geometry">
            <mxPoint x="-2490" y="120" as="targetPoint" />
          </mxGeometry>
        </mxCell>
        <mxCell id="SyE-WnLj72KJWZx9Bk1h-55" style="edgeStyle=orthogonalEdgeStyle;rounded=0;orthogonalLoop=1;jettySize=auto;html=1;startArrow=classic;startFill=1;entryX=0.5;entryY=0;entryDx=0;entryDy=0;" parent="1" source="SyE-WnLj72KJWZx9Bk1h-51" target="9Wqa6SIRsuj5Y4Wulnrp-36" edge="1">
          <mxGeometry relative="1" as="geometry">
            <mxPoint x="-2352.4814814814813" y="120.00000000000023" as="targetPoint" />
          </mxGeometry>
        </mxCell>
        <mxCell id="SyE-WnLj72KJWZx9Bk1h-51" value="" style="ellipse;whiteSpace=wrap;html=1;aspect=fixed;fillColor=#f5f5f5;fontColor=#333333;strokeColor=#666666;" parent="1" vertex="1">
          <mxGeometry x="-2437.5" y="40" width="30" height="30" as="geometry" />
        </mxCell>
        <mxCell id="SyE-WnLj72KJWZx9Bk1h-57" style="edgeStyle=orthogonalEdgeStyle;rounded=0;orthogonalLoop=1;jettySize=auto;html=1;entryX=0.5;entryY=1;entryDx=0;entryDy=0;startArrow=classic;startFill=1;" parent="1" source="SyE-WnLj72KJWZx9Bk1h-56" target="SyE-WnLj72KJWZx9Bk1h-2" edge="1">
          <mxGeometry relative="1" as="geometry" />
        </mxCell>
        <mxCell id="SyE-WnLj72KJWZx9Bk1h-58" style="edgeStyle=orthogonalEdgeStyle;rounded=0;orthogonalLoop=1;jettySize=auto;html=1;startArrow=classic;startFill=1;" parent="1" source="SyE-WnLj72KJWZx9Bk1h-56" target="SyE-WnLj72KJWZx9Bk1h-4" edge="1">
          <mxGeometry relative="1" as="geometry" />
        </mxCell>
        <mxCell id="SyE-WnLj72KJWZx9Bk1h-62" style="edgeStyle=orthogonalEdgeStyle;rounded=0;orthogonalLoop=1;jettySize=auto;html=1;entryX=0.521;entryY=0;entryDx=0;entryDy=0;entryPerimeter=0;startArrow=classic;startFill=1;" parent="1" source="SyE-WnLj72KJWZx9Bk1h-56" target="SyE-WnLj72KJWZx9Bk1h-5" edge="1">
          <mxGeometry relative="1" as="geometry" />
        </mxCell>
        <mxCell id="SyE-WnLj72KJWZx9Bk1h-64" style="edgeStyle=orthogonalEdgeStyle;rounded=0;orthogonalLoop=1;jettySize=auto;html=1;startArrow=classic;startFill=1;" parent="1" source="SyE-WnLj72KJWZx9Bk1h-56" edge="1" target="SyE-WnLj72KJWZx9Bk1h-6">
          <mxGeometry relative="1" as="geometry">
            <mxPoint x="-2130" y="-95" as="targetPoint" />
          </mxGeometry>
        </mxCell>
        <mxCell id="SyE-WnLj72KJWZx9Bk1h-56" value="" style="ellipse;whiteSpace=wrap;html=1;aspect=fixed;fillColor=#f5f5f5;fontColor=#333333;strokeColor=#666666;" parent="1" vertex="1">
          <mxGeometry x="-2435" y="-120" width="30" height="30" as="geometry" />
        </mxCell>
        <mxCell id="SyE-WnLj72KJWZx9Bk1h-72" value="&lt;span&gt;O sistema permite o jogador coletar itens&lt;/span&gt;" style="rounded=0;whiteSpace=wrap;html=1;" parent="1" vertex="1">
          <mxGeometry x="-1450" y="-180" width="120" height="50" as="geometry" />
        </mxCell>
        <mxCell id="SyE-WnLj72KJWZx9Bk1h-73" value="&lt;span&gt;O sistema permite o jogador coletar poções&lt;/span&gt;" style="rounded=0;whiteSpace=wrap;html=1;" parent="1" vertex="1">
          <mxGeometry x="-1560" y="-80" width="120" height="50" as="geometry" />
        </mxCell>
        <mxCell id="SyE-WnLj72KJWZx9Bk1h-74" value="&lt;span&gt;O sistema permite o jogador coletar chave&lt;/span&gt;" style="rounded=0;whiteSpace=wrap;html=1;" parent="1" vertex="1">
          <mxGeometry x="-1420" y="-80" width="120" height="50" as="geometry" />
        </mxCell>
        <mxCell id="SyE-WnLj72KJWZx9Bk1h-76" value="&lt;span&gt;O sistema gerencia as salas&lt;/span&gt;" style="rounded=0;whiteSpace=wrap;html=1;" parent="1" vertex="1">
          <mxGeometry x="-4215" y="1240" width="120" height="50" as="geometry" />
        </mxCell>
        <mxCell id="SyE-WnLj72KJWZx9Bk1h-77" value="&lt;span&gt;O sistema permite o jogador coletar machado&lt;/span&gt;" style="rounded=0;whiteSpace=wrap;html=1;" parent="1" vertex="1">
          <mxGeometry x="-1280" y="-80" width="120" height="50" as="geometry" />
        </mxCell>
        <mxCell id="SyE-WnLj72KJWZx9Bk1h-78" value="Utiliza o comando de coleta" style="rounded=0;whiteSpace=wrap;html=1;" parent="1" vertex="1">
          <mxGeometry x="-1529.5" width="120" height="50" as="geometry" />
        </mxCell>
        <mxCell id="SyE-WnLj72KJWZx9Bk1h-79" value="Item é inserido no inventário" style="rounded=0;whiteSpace=wrap;html=1;" parent="1" vertex="1">
          <mxGeometry x="-1260" width="120" height="50" as="geometry" />
        </mxCell>
        <mxCell id="SyE-WnLj72KJWZx9Bk1h-80" value="&lt;span&gt;O sistema permite o jogador tokens&lt;/span&gt;" style="rounded=0;whiteSpace=wrap;html=1;" parent="1" vertex="1">
          <mxGeometry x="-995" y="-160" width="120" height="50" as="geometry" />
        </mxCell>
        <mxCell id="SyE-WnLj72KJWZx9Bk1h-81" value="&lt;span&gt;O sistema permite coletar diamante&lt;/span&gt;" style="rounded=0;whiteSpace=wrap;html=1;" parent="1" vertex="1">
          <mxGeometry x="-1060" y="-90" width="120" height="50" as="geometry" />
        </mxCell>
        <mxCell id="SyE-WnLj72KJWZx9Bk1h-82" value="&lt;span&gt;O sistema permite coletar ouro&lt;/span&gt;" style="rounded=0;whiteSpace=wrap;html=1;" parent="1" vertex="1">
          <mxGeometry x="-930" y="-90" width="120" height="50" as="geometry" />
        </mxCell>
        <mxCell id="SyE-WnLj72KJWZx9Bk1h-83" value="Move-se para o token" style="rounded=0;whiteSpace=wrap;html=1;" parent="1" vertex="1">
          <mxGeometry x="-1115" y="-10" width="120" height="50" as="geometry" />
        </mxCell>
        <mxCell id="SyE-WnLj72KJWZx9Bk1h-84" value="Coleta o token" style="rounded=0;whiteSpace=wrap;html=1;" parent="1" vertex="1">
          <mxGeometry x="-840" y="130" width="120" height="50" as="geometry" />
        </mxCell>
        <mxCell id="SyE-WnLj72KJWZx9Bk1h-85" value="Mostra o token contabilizado" style="rounded=0;whiteSpace=wrap;html=1;" parent="1" vertex="1">
          <mxGeometry x="-710" y="130" width="120" height="50" as="geometry" />
        </mxCell>
        <mxCell id="SyE-WnLj72KJWZx9Bk1h-86" value="&lt;span&gt;O sistema insere elementos&amp;nbsp;&lt;/span&gt;" style="rounded=0;whiteSpace=wrap;html=1;" parent="1" vertex="1">
          <mxGeometry x="-4360" y="1340.03" width="120" height="50" as="geometry" />
        </mxCell>
        <mxCell id="SyE-WnLj72KJWZx9Bk1h-87" value="&lt;span&gt;O sistema insere trolls&lt;/span&gt;" style="rounded=0;whiteSpace=wrap;html=1;" parent="1" vertex="1">
          <mxGeometry x="-4215" y="1340.03" width="120" height="50" as="geometry" />
        </mxCell>
        <mxCell id="SyE-WnLj72KJWZx9Bk1h-88" value="&lt;span&gt;Ouro&lt;/span&gt;" style="rounded=0;whiteSpace=wrap;html=1;" parent="1" vertex="1">
          <mxGeometry x="-4880" y="1420.03" width="120" height="50" as="geometry" />
        </mxCell>
        <mxCell id="SyE-WnLj72KJWZx9Bk1h-89" value="&lt;span&gt;Diamantes&lt;/span&gt;" style="rounded=0;whiteSpace=wrap;html=1;" parent="1" vertex="1">
          <mxGeometry x="-4750" y="1420.03" width="120" height="50" as="geometry" />
        </mxCell>
        <mxCell id="SyE-WnLj72KJWZx9Bk1h-90" value="&lt;span&gt;Poções&lt;/span&gt;" style="rounded=0;whiteSpace=wrap;html=1;" parent="1" vertex="1">
          <mxGeometry x="-4620" y="1420.03" width="120" height="50" as="geometry" />
        </mxCell>
        <mxCell id="SyE-WnLj72KJWZx9Bk1h-91" value="&lt;span&gt;Chaves&lt;/span&gt;" style="rounded=0;whiteSpace=wrap;html=1;" parent="1" vertex="1">
          <mxGeometry x="-4490" y="1420.03" width="120" height="50" as="geometry" />
        </mxCell>
        <mxCell id="SyE-WnLj72KJWZx9Bk1h-92" value="&lt;span&gt;Machados&lt;/span&gt;" style="rounded=0;whiteSpace=wrap;html=1;" parent="1" vertex="1">
          <mxGeometry x="-4360" y="1420.03" width="120" height="50" as="geometry" />
        </mxCell>
        <mxCell id="SyE-WnLj72KJWZx9Bk1h-93" value="&lt;span&gt;O sistema gerencia portas&lt;/span&gt;" style="rounded=0;whiteSpace=wrap;html=1;" parent="1" vertex="1">
          <mxGeometry x="-4075" y="1340.03" width="120" height="50" as="geometry" />
        </mxCell>
        <mxCell id="SyE-WnLj72KJWZx9Bk1h-94" value="&lt;span&gt;Abertas&lt;/span&gt;" style="rounded=0;whiteSpace=wrap;html=1;" parent="1" vertex="1">
          <mxGeometry x="-4075" y="1410.03" width="120" height="50" as="geometry" />
        </mxCell>
        <mxCell id="SyE-WnLj72KJWZx9Bk1h-95" value="&lt;span&gt;Fechadas&lt;/span&gt;" style="rounded=0;whiteSpace=wrap;html=1;" parent="1" vertex="1">
          <mxGeometry x="-3940" y="1410.03" width="120" height="50" as="geometry" />
        </mxCell>
        <mxCell id="SyE-WnLj72KJWZx9Bk1h-96" value="Verifica se o inventário tem espaço (5 itens)" style="rounded=0;whiteSpace=wrap;html=1;" parent="1" vertex="1">
          <mxGeometry x="-1390" width="120" height="50" as="geometry" />
        </mxCell>
        <mxCell id="SyE-WnLj72KJWZx9Bk1h-97" value="Verifica se existe troll" style="rounded=0;whiteSpace=wrap;html=1;" parent="1" vertex="1">
          <mxGeometry x="-980" y="-10" width="120" height="50" as="geometry" />
        </mxCell>
        <mxCell id="SyE-WnLj72KJWZx9Bk1h-98" value="O sistema mostra que existe troll" style="rounded=0;whiteSpace=wrap;html=1;" parent="1" vertex="1">
          <mxGeometry x="-1040" y="70" width="120" height="50" as="geometry" />
        </mxCell>
        <mxCell id="SyE-WnLj72KJWZx9Bk1h-99" value="Não existe troll" style="rounded=0;whiteSpace=wrap;html=1;" parent="1" vertex="1">
          <mxGeometry x="-910" y="70" width="120" height="50" as="geometry" />
        </mxCell>
        <mxCell id="SyE-WnLj72KJWZx9Bk1h-100" value="Verifica se existe machado no inventário" style="rounded=0;whiteSpace=wrap;html=1;" parent="1" vertex="1">
          <mxGeometry x="-1130" y="140" width="120" height="50" as="geometry" />
        </mxCell>
        <mxCell id="SyE-WnLj72KJWZx9Bk1h-101" value="Aremessa machado" style="rounded=0;whiteSpace=wrap;html=1;" parent="1" vertex="1">
          <mxGeometry x="-1210" y="270" width="120" height="50" as="geometry" />
        </mxCell>
        <mxCell id="SyE-WnLj72KJWZx9Bk1h-102" value="Realiza outra ação" style="rounded=0;whiteSpace=wrap;html=1;" parent="1" vertex="1">
          <mxGeometry x="-1020" y="270" width="120" height="50" as="geometry" />
        </mxCell>
        <mxCell id="SyE-WnLj72KJWZx9Bk1h-103" value="Verifica se existe machado no inventário" style="rounded=0;whiteSpace=wrap;html=1;" parent="1" vertex="1">
          <mxGeometry x="-1000" y="140" width="120" height="50" as="geometry" />
        </mxCell>
        <mxCell id="SyE-WnLj72KJWZx9Bk1h-104" value="Existe machado" style="rounded=0;whiteSpace=wrap;html=1;" parent="1" vertex="1">
          <mxGeometry x="-1170" y="210" width="120" height="50" as="geometry" />
        </mxCell>
        <mxCell id="SyE-WnLj72KJWZx9Bk1h-105" value="Não existe machado" style="rounded=0;whiteSpace=wrap;html=1;" parent="1" vertex="1">
          <mxGeometry x="-1040" y="210" width="120" height="50" as="geometry" />
        </mxCell>
        <mxCell id="SyE-WnLj72KJWZx9Bk1h-109" style="edgeStyle=orthogonalEdgeStyle;rounded=0;orthogonalLoop=1;jettySize=auto;html=1;exitX=1;exitY=0.25;exitDx=0;exitDy=0;entryX=0.5;entryY=1;entryDx=0;entryDy=0;" parent="1" source="SyE-WnLj72KJWZx9Bk1h-107" target="SyE-WnLj72KJWZx9Bk1h-84" edge="1">
          <mxGeometry relative="1" as="geometry" />
        </mxCell>
        <mxCell id="SyE-WnLj72KJWZx9Bk1h-107" value="Machado quebra" style="rounded=0;whiteSpace=wrap;html=1;" parent="1" vertex="1">
          <mxGeometry x="-1260" y="340" width="120" height="50" as="geometry" />
        </mxCell>
        <mxCell id="SyE-WnLj72KJWZx9Bk1h-110" value="&lt;span&gt;Movimenta os trolls aleatoriamente&amp;nbsp; (Salas adjacentes)&lt;/span&gt;" style="rounded=0;whiteSpace=wrap;html=1;" parent="1" vertex="1">
          <mxGeometry x="-3880" y="1970" width="120" height="50" as="geometry" />
        </mxCell>
        <mxCell id="SyE-WnLj72KJWZx9Bk1h-113" value="&lt;span&gt;Verifica se existe machado na sala&lt;/span&gt;" style="rounded=0;whiteSpace=wrap;html=1;" parent="1" vertex="1">
          <mxGeometry x="-3955" y="2050" width="120" height="50" as="geometry" />
        </mxCell>
        <mxCell id="SyE-WnLj72KJWZx9Bk1h-114" value="&lt;span&gt;Troll pega machado&lt;/span&gt;" style="rounded=0;whiteSpace=wrap;html=1;" parent="1" vertex="1">
          <mxGeometry x="-3825" y="2050" width="120" height="50" as="geometry" />
        </mxCell>
        <mxCell id="SyE-WnLj72KJWZx9Bk1h-129" value="&lt;span&gt;O sistema gerencia as telas&lt;/span&gt;" style="rounded=0;whiteSpace=wrap;html=1;" parent="1" vertex="1">
          <mxGeometry x="1320" y="-550" width="120" height="50" as="geometry" />
        </mxCell>
        <mxCell id="SyE-WnLj72KJWZx9Bk1h-130" value="&lt;span&gt;O sistema lista as&amp;nbsp; portas e as identificações&lt;/span&gt;" style="rounded=0;whiteSpace=wrap;html=1;" parent="1" vertex="1">
          <mxGeometry x="1180" y="-470" width="120" height="50" as="geometry" />
        </mxCell>
        <mxCell id="SyE-WnLj72KJWZx9Bk1h-131" value="&lt;span&gt;Quantidade de ouro, diamante, poção, machados e chaves&lt;/span&gt;" style="rounded=0;whiteSpace=wrap;html=1;" parent="1" vertex="1">
          <mxGeometry x="1320" y="-470" width="120" height="50" as="geometry" />
        </mxCell>
        <mxCell id="SyE-WnLj72KJWZx9Bk1h-132" value="O sistema lista a quantidade de trolls na sala" style="rounded=0;whiteSpace=wrap;html=1;" parent="1" vertex="1">
          <mxGeometry x="1465" y="-470" width="120" height="50" as="geometry" />
        </mxCell>
        <mxCell id="SyE-WnLj72KJWZx9Bk1h-136" value="O sistema lista quantidade de itens do jogador" style="rounded=0;whiteSpace=wrap;html=1;" parent="1" vertex="1">
          <mxGeometry x="1597.5" y="-470" width="120" height="50" as="geometry" />
        </mxCell>
        <mxCell id="SyE-WnLj72KJWZx9Bk1h-137" value="&lt;span&gt;O sistema permite o jogador arremessar um machado&lt;/span&gt;" style="rounded=0;whiteSpace=wrap;html=1;" parent="1" vertex="1">
          <mxGeometry x="1910" y="-230" width="120" height="50" as="geometry" />
        </mxCell>
        <mxCell id="9Wqa6SIRsuj5Y4Wulnrp-4" style="edgeStyle=orthogonalEdgeStyle;rounded=0;orthogonalLoop=1;jettySize=auto;html=1;startArrow=classic;startFill=1;" edge="1" parent="1" source="9Wqa6SIRsuj5Y4Wulnrp-2" target="hRmUiVgqd-fP8M-4zKgl-5">
          <mxGeometry relative="1" as="geometry" />
        </mxCell>
        <mxCell id="9Wqa6SIRsuj5Y4Wulnrp-5" style="edgeStyle=orthogonalEdgeStyle;rounded=0;orthogonalLoop=1;jettySize=auto;html=1;entryX=0.5;entryY=0;entryDx=0;entryDy=0;startArrow=classic;startFill=1;" edge="1" parent="1" source="9Wqa6SIRsuj5Y4Wulnrp-2" target="hRmUiVgqd-fP8M-4zKgl-21">
          <mxGeometry relative="1" as="geometry" />
        </mxCell>
        <mxCell id="9Wqa6SIRsuj5Y4Wulnrp-6" style="edgeStyle=orthogonalEdgeStyle;rounded=0;orthogonalLoop=1;jettySize=auto;html=1;entryX=0.5;entryY=0;entryDx=0;entryDy=0;startArrow=classic;startFill=1;" edge="1" parent="1" source="9Wqa6SIRsuj5Y4Wulnrp-2" target="hRmUiVgqd-fP8M-4zKgl-14">
          <mxGeometry relative="1" as="geometry" />
        </mxCell>
        <mxCell id="9Wqa6SIRsuj5Y4Wulnrp-7" style="edgeStyle=orthogonalEdgeStyle;rounded=0;orthogonalLoop=1;jettySize=auto;html=1;entryX=0.5;entryY=0;entryDx=0;entryDy=0;startArrow=classic;startFill=1;" edge="1" parent="1" source="9Wqa6SIRsuj5Y4Wulnrp-2" target="hRmUiVgqd-fP8M-4zKgl-15">
          <mxGeometry relative="1" as="geometry" />
        </mxCell>
        <mxCell id="9Wqa6SIRsuj5Y4Wulnrp-2" value="" style="ellipse;whiteSpace=wrap;html=1;aspect=fixed;fillColor=#f5f5f5;fontColor=#333333;strokeColor=#666666;" vertex="1" parent="1">
          <mxGeometry x="684.5" y="-870" width="30" height="30" as="geometry" />
        </mxCell>
        <mxCell id="9Wqa6SIRsuj5Y4Wulnrp-16" style="edgeStyle=orthogonalEdgeStyle;rounded=0;orthogonalLoop=1;jettySize=auto;html=1;entryX=0.5;entryY=0;entryDx=0;entryDy=0;startArrow=classic;startFill=1;" edge="1" parent="1" source="9Wqa6SIRsuj5Y4Wulnrp-8" target="9Wqa6SIRsuj5Y4Wulnrp-15">
          <mxGeometry relative="1" as="geometry" />
        </mxCell>
        <mxCell id="9Wqa6SIRsuj5Y4Wulnrp-21" style="edgeStyle=orthogonalEdgeStyle;rounded=0;orthogonalLoop=1;jettySize=auto;html=1;entryX=0.5;entryY=0;entryDx=0;entryDy=0;fontSize=10;startArrow=classic;startFill=1;" edge="1" parent="1" source="9Wqa6SIRsuj5Y4Wulnrp-8" target="9Wqa6SIRsuj5Y4Wulnrp-20">
          <mxGeometry relative="1" as="geometry" />
        </mxCell>
        <mxCell id="9Wqa6SIRsuj5Y4Wulnrp-8" value="" style="ellipse;whiteSpace=wrap;html=1;aspect=fixed;fillColor=#f5f5f5;fontColor=#333333;strokeColor=#666666;" vertex="1" parent="1">
          <mxGeometry x="365" y="-700" width="30" height="30" as="geometry" />
        </mxCell>
        <mxCell id="9Wqa6SIRsuj5Y4Wulnrp-9" value="" style="ellipse;whiteSpace=wrap;html=1;aspect=fixed;fillColor=#f5f5f5;fontColor=#333333;strokeColor=#666666;" vertex="1" parent="1">
          <mxGeometry x="685" y="-700" width="30" height="30" as="geometry" />
        </mxCell>
        <mxCell id="9Wqa6SIRsuj5Y4Wulnrp-10" value="" style="ellipse;whiteSpace=wrap;html=1;aspect=fixed;fillColor=#f5f5f5;fontColor=#333333;strokeColor=#666666;" vertex="1" parent="1">
          <mxGeometry x="1025" y="-700" width="30" height="30" as="geometry" />
        </mxCell>
        <mxCell id="9Wqa6SIRsuj5Y4Wulnrp-15" value="&lt;font style=&quot;font-size: 10px&quot;&gt;&lt;b&gt;&lt;font color=&quot;#0000ff&quot;&gt;G2.1.1&lt;/font&gt;&lt;/b&gt;&lt;br&gt;Comportamento temporal - o carregamento e processamento do sistema deve durar menos que 1s&lt;/font&gt;" style="rounded=0;whiteSpace=wrap;html=1;" vertex="1" parent="1">
          <mxGeometry x="165" y="-620" width="210" height="70" as="geometry" />
        </mxCell>
        <mxCell id="9Wqa6SIRsuj5Y4Wulnrp-20" value="&lt;font style=&quot;font-size: 10px&quot;&gt;&lt;b&gt;&lt;font color=&quot;#0000ff&quot;&gt;G2.1.2&lt;/font&gt;&lt;/b&gt;&lt;br&gt;Utilização de recursos - a quantidade de recursos de processamento deve ser mínima.&amp;nbsp;Permitindo ser executável em qualquer máquina.&lt;/font&gt;" style="rounded=0;whiteSpace=wrap;html=1;" vertex="1" parent="1">
          <mxGeometry x="385" y="-620" width="210" height="70" as="geometry" />
        </mxCell>
        <mxCell id="9Wqa6SIRsuj5Y4Wulnrp-22" style="edgeStyle=orthogonalEdgeStyle;rounded=0;orthogonalLoop=1;jettySize=auto;html=1;entryX=0.5;entryY=0;entryDx=0;entryDy=0;startArrow=classic;startFill=1;" edge="1" parent="1" target="9Wqa6SIRsuj5Y4Wulnrp-23">
          <mxGeometry relative="1" as="geometry">
            <mxPoint x="700" y="-670" as="sourcePoint" />
          </mxGeometry>
        </mxCell>
        <mxCell id="9Wqa6SIRsuj5Y4Wulnrp-23" value="&lt;font style=&quot;font-size: 10px&quot;&gt;&lt;b&gt;&lt;font color=&quot;#0000ff&quot;&gt;G2.2.1&lt;/font&gt;&lt;/b&gt;&lt;br&gt;Mitigação de Risco Econômico - o produto não oferece potencial de risco para situação financeira, comercial e de reputação&lt;/font&gt;" style="rounded=0;whiteSpace=wrap;html=1;" vertex="1" parent="1">
          <mxGeometry x="595" y="-540" width="210" height="70" as="geometry" />
        </mxCell>
        <mxCell id="9Wqa6SIRsuj5Y4Wulnrp-24" style="edgeStyle=orthogonalEdgeStyle;rounded=0;orthogonalLoop=1;jettySize=auto;html=1;entryX=0.5;entryY=0;entryDx=0;entryDy=0;startArrow=classic;startFill=1;exitX=0.5;exitY=1;exitDx=0;exitDy=0;" edge="1" parent="1" target="9Wqa6SIRsuj5Y4Wulnrp-26" source="9Wqa6SIRsuj5Y4Wulnrp-10">
          <mxGeometry relative="1" as="geometry">
            <mxPoint x="1045" y="-660" as="sourcePoint" />
          </mxGeometry>
        </mxCell>
        <mxCell id="9Wqa6SIRsuj5Y4Wulnrp-25" style="edgeStyle=orthogonalEdgeStyle;rounded=0;orthogonalLoop=1;jettySize=auto;html=1;entryX=0.5;entryY=0;entryDx=0;entryDy=0;fontSize=10;startArrow=classic;startFill=1;exitX=0.5;exitY=1;exitDx=0;exitDy=0;" edge="1" parent="1" target="9Wqa6SIRsuj5Y4Wulnrp-27" source="9Wqa6SIRsuj5Y4Wulnrp-10">
          <mxGeometry relative="1" as="geometry">
            <mxPoint x="1045" y="-660" as="sourcePoint" />
          </mxGeometry>
        </mxCell>
        <mxCell id="9Wqa6SIRsuj5Y4Wulnrp-26" value="&lt;font style=&quot;font-size: 10px&quot;&gt;&lt;b&gt;&lt;font color=&quot;#0000ff&quot;&gt;G2.3.1&lt;/font&gt;&lt;/b&gt;&lt;br&gt;Instalação - o sistema é simples e eficiente em sua instalação e/ou desinstalação no ambiente Windows&lt;/font&gt;" style="rounded=0;whiteSpace=wrap;html=1;" vertex="1" parent="1">
          <mxGeometry x="830" y="-610" width="210" height="70" as="geometry" />
        </mxCell>
        <mxCell id="9Wqa6SIRsuj5Y4Wulnrp-27" value="&lt;font style=&quot;font-size: 10px&quot;&gt;&lt;b&gt;&lt;font color=&quot;#0000ff&quot;&gt;G2.3.2&lt;/font&gt;&lt;/b&gt;&lt;br&gt;Substituibilidade - o sistema pode ser substituído por outro software especificado para a mesma finalidade no ambiente windows&amp;nbsp;&lt;/font&gt;" style="rounded=0;whiteSpace=wrap;html=1;" vertex="1" parent="1">
          <mxGeometry x="1050" y="-610" width="210" height="70" as="geometry" />
        </mxCell>
        <mxCell id="9Wqa6SIRsuj5Y4Wulnrp-28" value="" style="ellipse;whiteSpace=wrap;html=1;aspect=fixed;fillColor=#f5f5f5;fontColor=#333333;strokeColor=#666666;" vertex="1" parent="1">
          <mxGeometry x="-475" y="-570" width="30" height="30" as="geometry" />
        </mxCell>
        <mxCell id="9Wqa6SIRsuj5Y4Wulnrp-29" value="" style="edgeStyle=orthogonalEdgeStyle;rounded=0;orthogonalLoop=1;jettySize=auto;html=1;entryX=0.5;entryY=0;entryDx=0;entryDy=0;exitX=0.5;exitY=1;exitDx=0;exitDy=0;startArrow=classic;startFill=1;endArrow=none;" edge="1" parent="1" source="hRmUiVgqd-fP8M-4zKgl-3" target="9Wqa6SIRsuj5Y4Wulnrp-28">
          <mxGeometry relative="1" as="geometry">
            <mxPoint x="-460" y="-680" as="sourcePoint" />
            <mxPoint x="-1842.5" y="-430" as="targetPoint" />
          </mxGeometry>
        </mxCell>
        <mxCell id="9Wqa6SIRsuj5Y4Wulnrp-31" style="edgeStyle=orthogonalEdgeStyle;rounded=0;orthogonalLoop=1;jettySize=auto;html=1;fontSize=10;startArrow=classic;startFill=1;" edge="1" parent="1" source="9Wqa6SIRsuj5Y4Wulnrp-30" target="SyE-WnLj72KJWZx9Bk1h-1">
          <mxGeometry relative="1" as="geometry" />
        </mxCell>
        <mxCell id="9Wqa6SIRsuj5Y4Wulnrp-30" value="" style="ellipse;whiteSpace=wrap;html=1;aspect=fixed;fillColor=#f5f5f5;fontColor=#333333;strokeColor=#666666;" vertex="1" parent="1">
          <mxGeometry x="-1857.5" y="-340" width="30" height="30" as="geometry" />
        </mxCell>
        <mxCell id="9Wqa6SIRsuj5Y4Wulnrp-33" value="&lt;span&gt;Utilizado a chave respectiva para destrancar a porta&lt;/span&gt;" style="shape=parallelogram;perimeter=parallelogramPerimeter;whiteSpace=wrap;html=1;fixedSize=1;fontSize=12;fillColor=#f5f5f5;fontColor=#333333;strokeColor=#666666;" vertex="1" parent="1">
          <mxGeometry x="-2633.75" y="120" width="140" height="60" as="geometry" />
        </mxCell>
        <mxCell id="9Wqa6SIRsuj5Y4Wulnrp-37" style="edgeStyle=orthogonalEdgeStyle;rounded=0;orthogonalLoop=1;jettySize=auto;html=1;entryX=0.5;entryY=1;entryDx=0;entryDy=0;fontSize=12;startArrow=classic;startFill=1;" edge="1" parent="1" source="9Wqa6SIRsuj5Y4Wulnrp-35" target="SyE-WnLj72KJWZx9Bk1h-51">
          <mxGeometry relative="1" as="geometry" />
        </mxCell>
        <mxCell id="9Wqa6SIRsuj5Y4Wulnrp-35" value="&lt;span&gt;Porta destrancada&lt;/span&gt;" style="shape=parallelogram;perimeter=parallelogramPerimeter;whiteSpace=wrap;html=1;fixedSize=1;fontSize=12;fillColor=#f5f5f5;fontColor=#333333;strokeColor=#666666;" vertex="1" parent="1">
          <mxGeometry x="-2492.5" y="120" width="140" height="60" as="geometry" />
        </mxCell>
        <mxCell id="9Wqa6SIRsuj5Y4Wulnrp-36" value="Chave desaparece do inventário do jogador" style="shape=parallelogram;perimeter=parallelogramPerimeter;whiteSpace=wrap;html=1;fixedSize=1;fontSize=12;fillColor=#f5f5f5;fontColor=#333333;strokeColor=#666666;" vertex="1" parent="1">
          <mxGeometry x="-2351.25" y="120" width="140" height="60" as="geometry" />
        </mxCell>
        <mxCell id="9Wqa6SIRsuj5Y4Wulnrp-38" style="edgeStyle=orthogonalEdgeStyle;rounded=0;orthogonalLoop=1;jettySize=auto;html=1;entryX=0.5;entryY=0;entryDx=0;entryDy=0;startArrow=classic;startFill=1;" edge="1" parent="1" target="9Wqa6SIRsuj5Y4Wulnrp-41">
          <mxGeometry relative="1" as="geometry">
            <mxPoint x="-2118.75" y="139.94" as="sourcePoint" />
          </mxGeometry>
        </mxCell>
        <mxCell id="9Wqa6SIRsuj5Y4Wulnrp-39" style="edgeStyle=orthogonalEdgeStyle;rounded=0;orthogonalLoop=1;jettySize=auto;html=1;startArrow=classic;startFill=1;" edge="1" parent="1" source="9Wqa6SIRsuj5Y4Wulnrp-41" target="9Wqa6SIRsuj5Y4Wulnrp-42">
          <mxGeometry relative="1" as="geometry">
            <mxPoint x="-2186.25" y="259.94" as="targetPoint" />
          </mxGeometry>
        </mxCell>
        <mxCell id="9Wqa6SIRsuj5Y4Wulnrp-40" style="edgeStyle=orthogonalEdgeStyle;rounded=0;orthogonalLoop=1;jettySize=auto;html=1;startArrow=classic;startFill=1;entryX=0.5;entryY=0;entryDx=0;entryDy=0;" edge="1" parent="1" source="9Wqa6SIRsuj5Y4Wulnrp-41" target="9Wqa6SIRsuj5Y4Wulnrp-45">
          <mxGeometry relative="1" as="geometry">
            <mxPoint x="-2048.7314814814813" y="259.9400000000002" as="targetPoint" />
          </mxGeometry>
        </mxCell>
        <mxCell id="9Wqa6SIRsuj5Y4Wulnrp-41" value="" style="ellipse;whiteSpace=wrap;html=1;aspect=fixed;fillColor=#f5f5f5;fontColor=#333333;strokeColor=#666666;" vertex="1" parent="1">
          <mxGeometry x="-2133.75" y="179.94" width="30" height="30" as="geometry" />
        </mxCell>
        <mxCell id="9Wqa6SIRsuj5Y4Wulnrp-42" value="&lt;span&gt;Utilizado uma poção para trancar a porta&lt;/span&gt;" style="shape=parallelogram;perimeter=parallelogramPerimeter;whiteSpace=wrap;html=1;fixedSize=1;fontSize=12;fillColor=#f5f5f5;fontColor=#333333;strokeColor=#666666;" vertex="1" parent="1">
          <mxGeometry x="-2360" y="259.94" width="170" height="60" as="geometry" />
        </mxCell>
        <mxCell id="9Wqa6SIRsuj5Y4Wulnrp-43" style="edgeStyle=orthogonalEdgeStyle;rounded=0;orthogonalLoop=1;jettySize=auto;html=1;entryX=0.5;entryY=1;entryDx=0;entryDy=0;fontSize=12;startArrow=classic;startFill=1;" edge="1" parent="1" source="9Wqa6SIRsuj5Y4Wulnrp-44" target="9Wqa6SIRsuj5Y4Wulnrp-41">
          <mxGeometry relative="1" as="geometry" />
        </mxCell>
        <mxCell id="9Wqa6SIRsuj5Y4Wulnrp-44" value="&lt;span&gt;Porta trancada&lt;/span&gt;" style="shape=parallelogram;perimeter=parallelogramPerimeter;whiteSpace=wrap;html=1;fixedSize=1;fontSize=12;fillColor=#f5f5f5;fontColor=#333333;strokeColor=#666666;" vertex="1" parent="1">
          <mxGeometry x="-2188.75" y="259.94" width="140" height="60" as="geometry" />
        </mxCell>
        <mxCell id="9Wqa6SIRsuj5Y4Wulnrp-45" value="Poção desaparece do inventário do jogador" style="shape=parallelogram;perimeter=parallelogramPerimeter;whiteSpace=wrap;html=1;fixedSize=1;fontSize=12;fillColor=#f5f5f5;fontColor=#333333;strokeColor=#666666;" vertex="1" parent="1">
          <mxGeometry x="-2047.5" y="259.94" width="167.5" height="60" as="geometry" />
        </mxCell>
        <mxCell id="9Wqa6SIRsuj5Y4Wulnrp-46" value="&lt;span&gt;O sistema leva o jogador a sala conectada pela porta&lt;/span&gt;" style="rounded=0;whiteSpace=wrap;html=1;" vertex="1" parent="1">
          <mxGeometry x="-3050" y="89.94" width="120" height="50" as="geometry" />
        </mxCell>
        <mxCell id="9Wqa6SIRsuj5Y4Wulnrp-50" style="edgeStyle=orthogonalEdgeStyle;rounded=0;orthogonalLoop=1;jettySize=auto;html=1;entryX=0.5;entryY=1;entryDx=0;entryDy=0;fontSize=12;startArrow=classic;startFill=1;" edge="1" parent="1" source="9Wqa6SIRsuj5Y4Wulnrp-48" target="SyE-WnLj72KJWZx9Bk1h-30">
          <mxGeometry relative="1" as="geometry" />
        </mxCell>
        <mxCell id="9Wqa6SIRsuj5Y4Wulnrp-48" value="&lt;span style=&quot;color: rgb(0 , 0 , 0)&quot;&gt;Selecionado a porta desejada&lt;/span&gt;" style="shape=parallelogram;perimeter=parallelogramPerimeter;whiteSpace=wrap;html=1;fixedSize=1;fontSize=12;fillColor=#f5f5f5;fontColor=#333333;strokeColor=#666666;" vertex="1" parent="1">
          <mxGeometry x="-2890" y="250" width="156.88" height="60" as="geometry" />
        </mxCell>
        <mxCell id="9Wqa6SIRsuj5Y4Wulnrp-51" style="edgeStyle=orthogonalEdgeStyle;rounded=0;orthogonalLoop=1;jettySize=auto;html=1;fontSize=12;startArrow=classic;startFill=1;entryX=0.5;entryY=1;entryDx=0;entryDy=0;" edge="1" parent="1" source="9Wqa6SIRsuj5Y4Wulnrp-49" target="SyE-WnLj72KJWZx9Bk1h-30">
          <mxGeometry relative="1" as="geometry">
            <mxPoint x="-2730" y="190" as="targetPoint" />
          </mxGeometry>
        </mxCell>
        <mxCell id="9Wqa6SIRsuj5Y4Wulnrp-49" value="&lt;span style=&quot;color: rgb(0 , 0 , 0)&quot;&gt;Utilizado os comandos de navegação&lt;/span&gt;" style="shape=parallelogram;perimeter=parallelogramPerimeter;whiteSpace=wrap;html=1;fixedSize=1;fontSize=12;fillColor=#f5f5f5;fontColor=#333333;strokeColor=#666666;" vertex="1" parent="1">
          <mxGeometry x="-2731.87" y="250" width="171.87" height="60" as="geometry" />
        </mxCell>
        <mxCell id="9Wqa6SIRsuj5Y4Wulnrp-52" value="&lt;span style=&quot;color: rgb(0 , 0 , 0)&quot;&gt;Colocado jogador na sala conectada pela porta&lt;/span&gt;" style="shape=parallelogram;perimeter=parallelogramPerimeter;whiteSpace=wrap;html=1;fixedSize=1;fontSize=12;fillColor=#f5f5f5;fontColor=#333333;strokeColor=#666666;" vertex="1" parent="1">
          <mxGeometry x="-3068.44" y="250" width="156.88" height="60" as="geometry" />
        </mxCell>
        <mxCell id="9Wqa6SIRsuj5Y4Wulnrp-54" value="" style="edgeStyle=orthogonalEdgeStyle;rounded=0;orthogonalLoop=1;jettySize=auto;html=1;fontSize=12;startArrow=classic;startFill=1;" edge="1" parent="1" source="9Wqa6SIRsuj5Y4Wulnrp-53" target="9Wqa6SIRsuj5Y4Wulnrp-46">
          <mxGeometry relative="1" as="geometry" />
        </mxCell>
        <mxCell id="9Wqa6SIRsuj5Y4Wulnrp-55" style="edgeStyle=orthogonalEdgeStyle;rounded=0;orthogonalLoop=1;jettySize=auto;html=1;fontSize=12;startArrow=classic;startFill=1;" edge="1" parent="1" source="9Wqa6SIRsuj5Y4Wulnrp-53">
          <mxGeometry relative="1" as="geometry">
            <mxPoint x="-2990" y="250" as="targetPoint" />
          </mxGeometry>
        </mxCell>
        <mxCell id="9Wqa6SIRsuj5Y4Wulnrp-53" value="" style="ellipse;whiteSpace=wrap;html=1;aspect=fixed;fillColor=#f5f5f5;fontColor=#333333;strokeColor=#666666;" vertex="1" parent="1">
          <mxGeometry x="-3005" y="180" width="30" height="30" as="geometry" />
        </mxCell>
        <mxCell id="9Wqa6SIRsuj5Y4Wulnrp-59" style="edgeStyle=orthogonalEdgeStyle;rounded=0;orthogonalLoop=1;jettySize=auto;html=1;fontSize=12;startArrow=classic;startFill=1;entryX=0;entryY=0.5;entryDx=0;entryDy=0;" edge="1" parent="1" source="9Wqa6SIRsuj5Y4Wulnrp-56" target="SyE-WnLj72KJWZx9Bk1h-56">
          <mxGeometry relative="1" as="geometry">
            <Array as="points">
              <mxPoint x="-3470" y="-105" />
            </Array>
          </mxGeometry>
        </mxCell>
        <mxCell id="9Wqa6SIRsuj5Y4Wulnrp-56" value="&lt;span&gt;&lt;font style=&quot;font-size: 12px&quot;&gt;O sistema permite o jogador interagir com trolls&lt;/font&gt;&lt;/span&gt;" style="rounded=0;whiteSpace=wrap;html=1;" vertex="1" parent="1">
          <mxGeometry x="-3550" y="-50" width="160" height="60" as="geometry" />
        </mxCell>
        <mxCell id="9Wqa6SIRsuj5Y4Wulnrp-60" value="&lt;span&gt;O jogador entra em uma sala com um troll&lt;br&gt;&lt;/span&gt;" style="rounded=0;whiteSpace=wrap;html=1;" vertex="1" parent="1">
          <mxGeometry x="-3540" y="120" width="140" height="50" as="geometry" />
        </mxCell>
        <mxCell id="9Wqa6SIRsuj5Y4Wulnrp-61" value="&lt;span&gt;A sala com o troll possui um machado&lt;/span&gt;" style="rounded=0;whiteSpace=wrap;html=1;" vertex="1" parent="1">
          <mxGeometry x="-3655" y="320.00000000000006" width="120" height="50" as="geometry" />
        </mxCell>
        <mxCell id="9Wqa6SIRsuj5Y4Wulnrp-62" value="&lt;span&gt;Troll arremessa machado no jogador&lt;/span&gt;" style="rounded=0;whiteSpace=wrap;html=1;" vertex="1" parent="1">
          <mxGeometry x="-3655" y="480" width="120" height="50" as="geometry" />
        </mxCell>
        <mxCell id="9Wqa6SIRsuj5Y4Wulnrp-93" style="edgeStyle=orthogonalEdgeStyle;rounded=0;orthogonalLoop=1;jettySize=auto;html=1;entryX=0.5;entryY=1;entryDx=0;entryDy=0;fontSize=12;startArrow=classic;startFill=1;" edge="1" parent="1" source="9Wqa6SIRsuj5Y4Wulnrp-64" target="9Wqa6SIRsuj5Y4Wulnrp-89">
          <mxGeometry relative="1" as="geometry">
            <Array as="points">
              <mxPoint x="-3735" y="630" />
              <mxPoint x="-3595" y="630" />
            </Array>
          </mxGeometry>
        </mxCell>
        <mxCell id="9Wqa6SIRsuj5Y4Wulnrp-64" value="&lt;span&gt;O jogador possui poção no inventário&lt;/span&gt;" style="rounded=0;whiteSpace=wrap;html=1;" vertex="1" parent="1">
          <mxGeometry x="-3806.56" y="650" width="120" height="50" as="geometry" />
        </mxCell>
        <mxCell id="9Wqa6SIRsuj5Y4Wulnrp-92" style="edgeStyle=orthogonalEdgeStyle;rounded=0;orthogonalLoop=1;jettySize=auto;html=1;entryX=0.5;entryY=1;entryDx=0;entryDy=0;fontSize=12;startArrow=classic;startFill=1;" edge="1" parent="1" source="9Wqa6SIRsuj5Y4Wulnrp-65" target="9Wqa6SIRsuj5Y4Wulnrp-89">
          <mxGeometry relative="1" as="geometry" />
        </mxCell>
        <mxCell id="9Wqa6SIRsuj5Y4Wulnrp-65" value="&lt;span&gt;O jogador possui peças de ouro no inventário&lt;/span&gt;" style="rounded=0;whiteSpace=wrap;html=1;" vertex="1" parent="1">
          <mxGeometry x="-3655" y="650" width="120" height="50" as="geometry" />
        </mxCell>
        <mxCell id="9Wqa6SIRsuj5Y4Wulnrp-71" value="" style="edgeStyle=orthogonalEdgeStyle;rounded=0;orthogonalLoop=1;jettySize=auto;html=1;fontSize=12;startArrow=classic;startFill=1;" edge="1" parent="1" source="9Wqa6SIRsuj5Y4Wulnrp-73">
          <mxGeometry relative="1" as="geometry">
            <mxPoint x="-3470" y="10.000000000000057" as="targetPoint" />
          </mxGeometry>
        </mxCell>
        <mxCell id="9Wqa6SIRsuj5Y4Wulnrp-72" style="edgeStyle=orthogonalEdgeStyle;rounded=0;orthogonalLoop=1;jettySize=auto;html=1;fontSize=12;startArrow=classic;startFill=1;" edge="1" parent="1" source="9Wqa6SIRsuj5Y4Wulnrp-73">
          <mxGeometry relative="1" as="geometry">
            <mxPoint x="-3470" y="120.06" as="targetPoint" />
          </mxGeometry>
        </mxCell>
        <mxCell id="9Wqa6SIRsuj5Y4Wulnrp-73" value="" style="ellipse;whiteSpace=wrap;html=1;aspect=fixed;fillColor=#f5f5f5;fontColor=#333333;strokeColor=#666666;" vertex="1" parent="1">
          <mxGeometry x="-3485" y="50.06" width="30" height="30" as="geometry" />
        </mxCell>
        <mxCell id="9Wqa6SIRsuj5Y4Wulnrp-74" value="" style="edgeStyle=orthogonalEdgeStyle;rounded=0;orthogonalLoop=1;jettySize=auto;html=1;fontSize=12;startArrow=classic;startFill=1;" edge="1" parent="1" source="9Wqa6SIRsuj5Y4Wulnrp-76">
          <mxGeometry relative="1" as="geometry">
            <mxPoint x="-3470" y="170" as="targetPoint" />
          </mxGeometry>
        </mxCell>
        <mxCell id="9Wqa6SIRsuj5Y4Wulnrp-75" style="edgeStyle=orthogonalEdgeStyle;rounded=0;orthogonalLoop=1;jettySize=auto;html=1;fontSize=12;startArrow=classic;startFill=1;entryX=0.5;entryY=0;entryDx=0;entryDy=0;" edge="1" parent="1" source="9Wqa6SIRsuj5Y4Wulnrp-76" target="9Wqa6SIRsuj5Y4Wulnrp-61">
          <mxGeometry relative="1" as="geometry">
            <mxPoint x="-3470" y="280.05999999999995" as="targetPoint" />
            <Array as="points">
              <mxPoint x="-3470" y="280" />
              <mxPoint x="-3595" y="280" />
            </Array>
          </mxGeometry>
        </mxCell>
        <mxCell id="9Wqa6SIRsuj5Y4Wulnrp-76" value="" style="ellipse;whiteSpace=wrap;html=1;aspect=fixed;fillColor=#f5f5f5;fontColor=#333333;strokeColor=#666666;" vertex="1" parent="1">
          <mxGeometry x="-3485" y="210.06" width="30" height="30" as="geometry" />
        </mxCell>
        <mxCell id="9Wqa6SIRsuj5Y4Wulnrp-81" style="edgeStyle=orthogonalEdgeStyle;rounded=0;orthogonalLoop=1;jettySize=auto;html=1;fontSize=12;startArrow=classic;startFill=1;" edge="1" parent="1" source="9Wqa6SIRsuj5Y4Wulnrp-78">
          <mxGeometry relative="1" as="geometry">
            <mxPoint x="-3470" y="240" as="targetPoint" />
            <Array as="points">
              <mxPoint x="-3360" y="280" />
              <mxPoint x="-3470" y="280" />
            </Array>
          </mxGeometry>
        </mxCell>
        <mxCell id="9Wqa6SIRsuj5Y4Wulnrp-78" value="&lt;span&gt;A sala com o troll não possui um machado&lt;/span&gt;" style="rounded=0;whiteSpace=wrap;html=1;" vertex="1" parent="1">
          <mxGeometry x="-3420" y="319.94000000000005" width="120" height="50" as="geometry" />
        </mxCell>
        <mxCell id="9Wqa6SIRsuj5Y4Wulnrp-83" value="" style="edgeStyle=orthogonalEdgeStyle;rounded=0;orthogonalLoop=1;jettySize=auto;html=1;fontSize=12;startArrow=classic;startFill=1;" edge="1" parent="1" source="9Wqa6SIRsuj5Y4Wulnrp-85">
          <mxGeometry relative="1" as="geometry">
            <mxPoint x="-3595" y="370" as="targetPoint" />
          </mxGeometry>
        </mxCell>
        <mxCell id="9Wqa6SIRsuj5Y4Wulnrp-84" style="edgeStyle=orthogonalEdgeStyle;rounded=0;orthogonalLoop=1;jettySize=auto;html=1;fontSize=12;startArrow=classic;startFill=1;" edge="1" parent="1" source="9Wqa6SIRsuj5Y4Wulnrp-85">
          <mxGeometry relative="1" as="geometry">
            <mxPoint x="-3595" y="480.05999999999995" as="targetPoint" />
          </mxGeometry>
        </mxCell>
        <mxCell id="9Wqa6SIRsuj5Y4Wulnrp-85" value="" style="ellipse;whiteSpace=wrap;html=1;aspect=fixed;fillColor=#f5f5f5;fontColor=#333333;strokeColor=#666666;" vertex="1" parent="1">
          <mxGeometry x="-3610" y="410.06" width="30" height="30" as="geometry" />
        </mxCell>
        <mxCell id="9Wqa6SIRsuj5Y4Wulnrp-94" style="edgeStyle=orthogonalEdgeStyle;rounded=0;orthogonalLoop=1;jettySize=auto;html=1;entryX=0.5;entryY=1;entryDx=0;entryDy=0;fontSize=12;startArrow=classic;startFill=1;" edge="1" parent="1" source="9Wqa6SIRsuj5Y4Wulnrp-86" target="9Wqa6SIRsuj5Y4Wulnrp-89">
          <mxGeometry relative="1" as="geometry">
            <Array as="points">
              <mxPoint x="-3455" y="630" />
              <mxPoint x="-3595" y="630" />
            </Array>
          </mxGeometry>
        </mxCell>
        <mxCell id="9Wqa6SIRsuj5Y4Wulnrp-86" value="&lt;span&gt;O jogador não possui poções nem peças de ouro no inventário&lt;/span&gt;" style="rounded=0;whiteSpace=wrap;html=1;" vertex="1" parent="1">
          <mxGeometry x="-3515" y="650" width="120" height="50" as="geometry" />
        </mxCell>
        <mxCell id="9Wqa6SIRsuj5Y4Wulnrp-87" value="" style="edgeStyle=orthogonalEdgeStyle;rounded=0;orthogonalLoop=1;jettySize=auto;html=1;fontSize=12;startArrow=classic;startFill=1;" edge="1" parent="1" source="9Wqa6SIRsuj5Y4Wulnrp-89">
          <mxGeometry relative="1" as="geometry">
            <mxPoint x="-3595" y="530" as="targetPoint" />
          </mxGeometry>
        </mxCell>
        <mxCell id="9Wqa6SIRsuj5Y4Wulnrp-89" value="" style="ellipse;whiteSpace=wrap;html=1;aspect=fixed;fillColor=#f5f5f5;fontColor=#333333;strokeColor=#666666;" vertex="1" parent="1">
          <mxGeometry x="-3610" y="570.06" width="30" height="30" as="geometry" />
        </mxCell>
        <mxCell id="9Wqa6SIRsuj5Y4Wulnrp-95" value="" style="edgeStyle=orthogonalEdgeStyle;rounded=0;orthogonalLoop=1;jettySize=auto;html=1;fontSize=12;startArrow=classic;startFill=1;" edge="1" parent="1" source="9Wqa6SIRsuj5Y4Wulnrp-97">
          <mxGeometry relative="1" as="geometry">
            <mxPoint x="-3746.56" y="700" as="targetPoint" />
          </mxGeometry>
        </mxCell>
        <mxCell id="9Wqa6SIRsuj5Y4Wulnrp-96" style="edgeStyle=orthogonalEdgeStyle;rounded=0;orthogonalLoop=1;jettySize=auto;html=1;fontSize=12;startArrow=classic;startFill=1;" edge="1" parent="1" source="9Wqa6SIRsuj5Y4Wulnrp-97">
          <mxGeometry relative="1" as="geometry">
            <mxPoint x="-3746.56" y="810.0600000000002" as="targetPoint" />
          </mxGeometry>
        </mxCell>
        <mxCell id="9Wqa6SIRsuj5Y4Wulnrp-97" value="" style="ellipse;whiteSpace=wrap;html=1;aspect=fixed;fillColor=#f5f5f5;fontColor=#333333;strokeColor=#666666;" vertex="1" parent="1">
          <mxGeometry x="-3761.56" y="740.06" width="30" height="30" as="geometry" />
        </mxCell>
        <mxCell id="9Wqa6SIRsuj5Y4Wulnrp-98" value="&lt;span style=&quot;color: rgb(0 , 0 , 0)&quot;&gt;Peças de ouro são colocadas de volta ao labirinto aleatoriamente&lt;/span&gt;" style="shape=parallelogram;perimeter=parallelogramPerimeter;whiteSpace=wrap;html=1;fixedSize=1;fontSize=12;fillColor=#f5f5f5;fontColor=#333333;strokeColor=#666666;" vertex="1" parent="1">
          <mxGeometry x="-3686.56" y="810" width="156.88" height="60" as="geometry" />
        </mxCell>
        <mxCell id="9Wqa6SIRsuj5Y4Wulnrp-99" value="&lt;span style=&quot;color: rgb(0 , 0 , 0)&quot;&gt;&amp;nbsp; &amp;nbsp; O jogador morre - o jogo é reiniciado&lt;/span&gt;" style="shape=parallelogram;perimeter=parallelogramPerimeter;whiteSpace=wrap;html=1;fixedSize=1;fontSize=12;fillColor=#f5f5f5;fontColor=#333333;strokeColor=#666666;" vertex="1" parent="1">
          <mxGeometry x="-3533.44" y="810" width="156.88" height="60" as="geometry" />
        </mxCell>
        <mxCell id="9Wqa6SIRsuj5Y4Wulnrp-100" value="&lt;span style=&quot;color: rgb(0 , 0 , 0)&quot;&gt;Poção é retirada do inventário&lt;/span&gt;" style="shape=parallelogram;perimeter=parallelogramPerimeter;whiteSpace=wrap;html=1;fixedSize=1;fontSize=12;fillColor=#f5f5f5;fontColor=#333333;strokeColor=#666666;" vertex="1" parent="1">
          <mxGeometry x="-3835" y="810" width="156.88" height="60" as="geometry" />
        </mxCell>
        <mxCell id="9Wqa6SIRsuj5Y4Wulnrp-101" value="" style="edgeStyle=orthogonalEdgeStyle;rounded=0;orthogonalLoop=1;jettySize=auto;html=1;fontSize=12;startArrow=classic;startFill=1;" edge="1" parent="1" source="9Wqa6SIRsuj5Y4Wulnrp-103">
          <mxGeometry relative="1" as="geometry">
            <mxPoint x="-3595" y="699.94" as="targetPoint" />
          </mxGeometry>
        </mxCell>
        <mxCell id="9Wqa6SIRsuj5Y4Wulnrp-102" style="edgeStyle=orthogonalEdgeStyle;rounded=0;orthogonalLoop=1;jettySize=auto;html=1;fontSize=12;startArrow=classic;startFill=1;" edge="1" parent="1" source="9Wqa6SIRsuj5Y4Wulnrp-103">
          <mxGeometry relative="1" as="geometry">
            <mxPoint x="-3595" y="810.0000000000005" as="targetPoint" />
          </mxGeometry>
        </mxCell>
        <mxCell id="9Wqa6SIRsuj5Y4Wulnrp-103" value="" style="ellipse;whiteSpace=wrap;html=1;aspect=fixed;fillColor=#f5f5f5;fontColor=#333333;strokeColor=#666666;" vertex="1" parent="1">
          <mxGeometry x="-3610" y="740" width="30" height="30" as="geometry" />
        </mxCell>
        <mxCell id="9Wqa6SIRsuj5Y4Wulnrp-104" value="" style="edgeStyle=orthogonalEdgeStyle;rounded=0;orthogonalLoop=1;jettySize=auto;html=1;fontSize=12;startArrow=classic;startFill=1;" edge="1" parent="1" source="9Wqa6SIRsuj5Y4Wulnrp-106">
          <mxGeometry relative="1" as="geometry">
            <mxPoint x="-3455" y="699.94" as="targetPoint" />
          </mxGeometry>
        </mxCell>
        <mxCell id="9Wqa6SIRsuj5Y4Wulnrp-105" style="edgeStyle=orthogonalEdgeStyle;rounded=0;orthogonalLoop=1;jettySize=auto;html=1;fontSize=12;startArrow=classic;startFill=1;" edge="1" parent="1" source="9Wqa6SIRsuj5Y4Wulnrp-106">
          <mxGeometry relative="1" as="geometry">
            <mxPoint x="-3455" y="810.0000000000005" as="targetPoint" />
          </mxGeometry>
        </mxCell>
        <mxCell id="9Wqa6SIRsuj5Y4Wulnrp-106" value="" style="ellipse;whiteSpace=wrap;html=1;aspect=fixed;fillColor=#f5f5f5;fontColor=#333333;strokeColor=#666666;" vertex="1" parent="1">
          <mxGeometry x="-3470" y="740" width="30" height="30" as="geometry" />
        </mxCell>
      </root>
    </mxGraphModel>
  </diagram>
</mxfile>
